<svg width="31" height="30" viewBox="0 0 31 30" fill="none" xmlns="http://www.w3.org/2000/svg">
<path fill-rule="evenodd" clip-rule="evenodd" d="M24.5 3V1C24.5 0.448 24.052 0 23.5 0C22.948 0 22.5 0.448 22.5 1V2C22.5 2 19.073 2 18 2C17.867 2 17.74 2.053 17.646 2.146C17.553 2.24 17.5 2.367 17.5 2.5C17.5 2.75 17.5 3 17.5 3C17.5 3.552 17.052 4 16.5 4C15.948 4 15.5 3.552 15.5 3V1C15.5 0.448 15.052 0 14.5 0C13.948 0 13.5 0.448 13.5 1V2C13.5 2 10.073 2 9 2C8.867 2 8.74 2.053 8.646 2.146C8.553 2.24 8.5 2.367 8.5 2.5C8.5 2.75 8.5 3 8.5 3C8.5 3.552 8.052 4 7.5 4C6.948 4 6.5 3.552 6.5 3V1C6.5 0.448 6.052 0 5.5 0C4.948 0 4.5 0.448 4.5 1V2H3C2.337 2 1.701 2.26299 1.232 2.73199C0.763002 3.20099 0.5 3.837 0.5 4.5V27.5C0.5 28.163 0.763002 28.799 1.232 29.268C1.701 29.737 2.337 30 3 30C7.86 30 23.14 30 28 30C28.663 30 29.299 29.737 29.768 29.268C30.237 28.799 30.5 28.163 30.5 27.5V4.5C30.5 3.837 30.237 3.20099 29.768 2.73199C29.299 2.26299 28.663 2 28 2C28 2 27.73 2 27 2C26.867 2 26.74 2.053 26.646 2.146C26.553 2.24 26.5 2.367 26.5 2.5C26.5 2.75 26.5 3 26.5 3C26.5 3.552 26.052 4 25.5 4C24.948 4 24.5 3.552 24.5 3ZM28.5 10V27.5C28.5 27.633 28.447 27.76 28.354 27.854C28.26 27.947 28.133 28 28 28H3C2.867 28 2.74 27.947 2.646 27.854C2.553 27.76 2.5 27.633 2.5 27.5V10H28.5ZM7.5 22C8.052 22 8.5 22.448 8.5 23C8.5 23.552 8.052 24 7.5 24C6.948 24 6.5 23.552 6.5 23C6.5 22.448 6.948 22 7.5 22ZM11.5 22C12.052 22 12.5 22.448 12.5 23C12.5 23.552 12.052 24 11.5 24C10.948 24 10.5 23.552 10.5 23C10.5 22.448 10.948 22 11.5 22ZM15.5 22C16.052 22 16.5 22.448 16.5 23C16.5 23.552 16.052 24 15.5 24C14.948 24 14.5 23.552 14.5 23C14.5 22.448 14.948 22 15.5 22ZM19.5 22C20.052 22 20.5 22.448 20.5 23C20.5 23.552 20.052 24 19.5 24C18.948 24 18.5 23.552 18.5 23C18.5 22.448 18.948 22 19.5 22ZM7.5 18C8.052 18 8.5 18.448 8.5 19C8.5 19.552 8.052 20 7.5 20C6.948 20 6.5 19.552 6.5 19C6.5 18.448 6.948 18 7.5 18ZM11.5 18C12.052 18 12.5 18.448 12.5 19C12.5 19.552 12.052 20 11.5 20C10.948 20 10.5 19.552 10.5 19C10.5 18.448 10.948 18 11.5 18ZM15.5 18C16.052 18 16.5 18.448 16.5 19C16.5 19.552 16.052 20 15.5 20C14.948 20 14.5 19.552 14.5 19C14.5 18.448 14.948 18 15.5 18ZM19.5 18C20.052 18 20.5 18.448 20.5 19C20.5 19.552 20.052 20 19.5 20C18.948 20 18.5 19.552 18.5 19C18.5 18.448 18.948 18 19.5 18ZM23.5 18C24.052 18 24.5 18.448 24.5 19C24.5 19.552 24.052 20 23.5 20C22.948 20 22.5 19.552 22.5 19C22.5 18.448 22.948 18 23.5 18ZM11.5 14C12.052 14 12.5 14.448 12.5 15C12.5 15.552 12.052 16 11.5 16C10.948 16 10.5 15.552 10.5 15C10.5 14.448 10.948 14 11.5 14ZM15.5 14C16.052 14 16.5 14.448 16.5 15C16.5 15.552 16.052 16 15.5 16C14.948 16 14.5 15.552 14.5 15C14.5 14.448 14.948 14 15.5 14ZM19.5 14C20.052 14 20.5 14.448 20.5 15C20.5 15.552 20.052 16 19.5 16C18.948 16 18.5 15.552 18.5 15C18.5 14.448 18.948 14 19.5 14ZM23.5 14C24.052 14 24.5 14.448 24.5 15C24.5 15.552 24.052 16 23.5 16C22.948 16 22.5 15.552 22.5 15C22.5 14.448 22.948 14 23.5 14Z" fill="#333333"/>
</svg>
