<svg id="Layer_1" data-name="Layer 1" xmlns="http://www.w3.org/2000/svg" viewBox="0 0 570.41 281.01"><defs><style>.cls-1{fill:#333;}.cls-2{fill:#3c3c3b;}.cls-3{fill:#6f6f6f;}.cls-4{fill:#1c1c1b;}.cls-5{fill:none;stroke:#1c1c1b;stroke-miterlimit:10;stroke-width:3.72px;}</style></defs><path class="cls-1" d="M397,445.84a13.21,13.21,0,0,1-.08,1.67,3.55,3.55,0,0,1-.26,1.08,1.71,1.71,0,0,1-.42.6.79.79,0,0,1-.53.2h-14v11.55h13.18a.9.9,0,0,1,.53.17,1.43,1.43,0,0,1,.41.56,3.94,3.94,0,0,1,.27,1.07,14.94,14.94,0,0,1,.08,1.66,15.21,15.21,0,0,1-.08,1.66,4.33,4.33,0,0,1-.27,1.09,1.55,1.55,0,0,1-.41.62.85.85,0,0,1-.53.18H381.65v16a1,1,0,0,1-.2.63,1.54,1.54,0,0,1-.72.45,6.09,6.09,0,0,1-1.34.28,22.52,22.52,0,0,1-4.24,0,5.85,5.85,0,0,1-1.34-.28,1.55,1.55,0,0,1-.71-.45.91.91,0,0,1-.22-.63V445a2.64,2.64,0,0,1,.75-2.11,2.7,2.7,0,0,1,1.84-.65h20.22a.83.83,0,0,1,.53.18,1.62,1.62,0,0,1,.42.6,3.94,3.94,0,0,1,.26,1.11A13.83,13.83,0,0,1,397,445.84Z" transform="translate(-226.95 -242.79)"/><path class="cls-1" d="M427,484.19a.89.89,0,0,1-.33.73,2.49,2.49,0,0,1-1.05.38,20.87,20.87,0,0,1-4.28,0,2,2,0,0,1-1-.38,1,1,0,0,1-.28-.73v-2.36a13.59,13.59,0,0,1-4.17,3.05,12.1,12.1,0,0,1-5.19,1.1,14.59,14.59,0,0,1-4.34-.62,9.68,9.68,0,0,1-3.42-1.82,8.23,8.23,0,0,1-2.24-3,10.22,10.22,0,0,1-.79-4.18,9.4,9.4,0,0,1,1-4.5,8.2,8.2,0,0,1,3-3.15,15.12,15.12,0,0,1,5-1.85,36.37,36.37,0,0,1,6.94-.59h2.89v-1.8a9.33,9.33,0,0,0-.29-2.44,3.9,3.9,0,0,0-.93-1.74,3.75,3.75,0,0,0-1.72-1,9.28,9.28,0,0,0-2.68-.33,13.75,13.75,0,0,0-3.73.46,22.12,22.12,0,0,0-2.91,1c-.84.38-1.54.72-2.1,1a3.15,3.15,0,0,1-1.38.47,1,1,0,0,1-.65-.24,1.59,1.59,0,0,1-.46-.66,4.36,4.36,0,0,1-.29-1.06,9.9,9.9,0,0,1-.1-1.4,6.26,6.26,0,0,1,.17-1.62,2.48,2.48,0,0,1,.63-1.08,6.22,6.22,0,0,1,1.63-1.07,19.55,19.55,0,0,1,2.72-1.07,23.86,23.86,0,0,1,3.4-.82,25.26,25.26,0,0,1,9.77.37,10,10,0,0,1,4.06,2.09,8.09,8.09,0,0,1,2.33,3.63,17.27,17.27,0,0,1,.73,5.28Zm-8.2-12.69h-3.19a17,17,0,0,0-3.45.3,6.59,6.59,0,0,0-2.33.9,3.73,3.73,0,0,0-1.31,1.44,4.32,4.32,0,0,0-.42,1.94,3.77,3.77,0,0,0,1.18,2.93,4.76,4.76,0,0,0,3.27,1.06,6.09,6.09,0,0,0,3.24-.9,13.44,13.44,0,0,0,3-2.62Z" transform="translate(-226.95 -242.79)"/><path class="cls-1" d="M482.42,484.09a.93.93,0,0,1-.2.58,1.57,1.57,0,0,1-.67.41,5.35,5.35,0,0,1-1.26.25,19,19,0,0,1-2,.08,19.33,19.33,0,0,1-2.06-.08,5.67,5.67,0,0,1-1.28-.25,1.36,1.36,0,0,1-.66-.41.92.92,0,0,1-.19-.58V466.52a12.09,12.09,0,0,0-.28-2.72,6.62,6.62,0,0,0-.86-2.11,4.12,4.12,0,0,0-1.46-1.36,4.36,4.36,0,0,0-2.11-.48,5,5,0,0,0-3,1.16A19.87,19.87,0,0,0,463,464.4v19.69a.93.93,0,0,1-.2.58,1.55,1.55,0,0,1-.68.41,5.78,5.78,0,0,1-1.28.25,18.62,18.62,0,0,1-2,.08,19.07,19.07,0,0,1-2-.08,5.67,5.67,0,0,1-1.28-.25,1.49,1.49,0,0,1-.68-.41.93.93,0,0,1-.2-.58V466.52a12.09,12.09,0,0,0-.28-2.72,6.61,6.61,0,0,0-.85-2.11,3.81,3.81,0,0,0-1.46-1.36,4.36,4.36,0,0,0-2.09-.48A5,5,0,0,0,447,461a19.12,19.12,0,0,0-3.29,3.39v19.69a.93.93,0,0,1-.2.58,1.49,1.49,0,0,1-.68.41,5.67,5.67,0,0,1-1.28.25,25.67,25.67,0,0,1-4.05,0,5.67,5.67,0,0,1-1.28-.25,1.49,1.49,0,0,1-.68-.41.93.93,0,0,1-.2-.58V454.47a1,1,0,0,1,.17-.58,1.2,1.2,0,0,1,.59-.42,5.08,5.08,0,0,1,1.12-.25,15.81,15.81,0,0,1,1.71-.08,16.84,16.84,0,0,1,1.76.08,4.32,4.32,0,0,1,1.08.25,1.19,1.19,0,0,1,.54.42,1,1,0,0,1,.17.58v3.42a19.73,19.73,0,0,1,4.9-4,10.53,10.53,0,0,1,5.09-1.32,12.76,12.76,0,0,1,3.29.38,9.57,9.57,0,0,1,2.61,1.09,8.34,8.34,0,0,1,2,1.71,10,10,0,0,1,1.4,2.23,25.37,25.37,0,0,1,2.6-2.46,16.78,16.78,0,0,1,2.53-1.68,11.6,11.6,0,0,1,2.49-1,10.27,10.27,0,0,1,2.54-.31,11.28,11.28,0,0,1,5,1,8.79,8.79,0,0,1,3.27,2.71,11,11,0,0,1,1.78,4,21.65,21.65,0,0,1,.53,4.85Z" transform="translate(-226.95 -242.79)"/><path class="cls-1" d="M520.43,468.88a26.72,26.72,0,0,1-.86,7.1,16,16,0,0,1-2.49,5.38,10.93,10.93,0,0,1-4,3.42,11.79,11.79,0,0,1-5.4,1.2,13.57,13.57,0,0,1-2.78-.28,9.63,9.63,0,0,1-2.48-.92,13.7,13.7,0,0,1-2.32-1.59,21.21,21.21,0,0,1-2.34-2.32v3.22a1,1,0,0,1-.19.61,1.3,1.3,0,0,1-.59.42,4.45,4.45,0,0,1-1.12.23c-.46,0-1,.06-1.69.06s-1.26,0-1.71-.06a4.47,4.47,0,0,1-1.1-.23,1.22,1.22,0,0,1-.58-.42,1.09,1.09,0,0,1-.16-.61V440.42a.9.9,0,0,1,.2-.59,1.44,1.44,0,0,1,.68-.45,5.37,5.37,0,0,1,1.28-.28,16,16,0,0,1,2-.1,16.19,16.19,0,0,1,2,.1,5.38,5.38,0,0,1,1.27.28,1.48,1.48,0,0,1,.69.45,1,1,0,0,1,.19.59v16.37a18.19,18.19,0,0,1,2.26-1.92,14.29,14.29,0,0,1,2.26-1.31,9.82,9.82,0,0,1,2.32-.75,12.87,12.87,0,0,1,2.53-.23,11,11,0,0,1,5.58,1.31,10.77,10.77,0,0,1,3.73,3.53,15.87,15.87,0,0,1,2.11,5.2A28.81,28.81,0,0,1,520.43,468.88Zm-8.66.6a24.23,24.23,0,0,0-.28-3.66,10.67,10.67,0,0,0-1-3.12,6.16,6.16,0,0,0-1.81-2.17,4.65,4.65,0,0,0-2.81-.81,5.68,5.68,0,0,0-1.63.23,6.12,6.12,0,0,0-1.64.79,12.15,12.15,0,0,0-1.74,1.47,20,20,0,0,0-1.9,2.22v9.83a18,18,0,0,0,3.37,3.43,5.63,5.63,0,0,0,3.38,1.18,4.47,4.47,0,0,0,2.75-.83,6.78,6.78,0,0,0,1.88-2.15,10.65,10.65,0,0,0,1.08-3A17.6,17.6,0,0,0,511.77,469.48Z" transform="translate(-226.95 -242.79)"/><path class="cls-1" d="M546.13,457.23c0,.79,0,1.45-.06,1.95a6.43,6.43,0,0,1-.2,1.2,1.2,1.2,0,0,1-.35.6.88.88,0,0,1-.55.16,2,2,0,0,1-.6-.11l-.74-.25c-.28-.09-.58-.17-.92-.25a4.61,4.61,0,0,0-1.09-.12,3.88,3.88,0,0,0-1.4.28,6.34,6.34,0,0,0-1.44.88,10.39,10.39,0,0,0-1.56,1.6,23.6,23.6,0,0,0-1.74,2.46v18.46a.93.93,0,0,1-.2.58,1.55,1.55,0,0,1-.68.41,5.78,5.78,0,0,1-1.28.25,19.07,19.07,0,0,1-2,.08,18.87,18.87,0,0,1-2-.08,5.55,5.55,0,0,1-1.28-.25,1.49,1.49,0,0,1-.68-.41.87.87,0,0,1-.2-.58V454.47a1,1,0,0,1,.16-.58,1.19,1.19,0,0,1,.6-.42,5.11,5.11,0,0,1,1.11-.25,16.08,16.08,0,0,1,1.71-.08,16.7,16.7,0,0,1,1.76.08,4.11,4.11,0,0,1,1.08.25,1.17,1.17,0,0,1,.55.42,1,1,0,0,1,.17.58v3.68a23.19,23.19,0,0,1,2.19-2.73,12.06,12.06,0,0,1,2-1.71,6,6,0,0,1,1.86-.88,7,7,0,0,1,1.86-.25,7.86,7.86,0,0,1,.93.05,9.76,9.76,0,0,1,1,.16,6.61,6.61,0,0,1,.93.27,2,2,0,0,1,.59.31,1,1,0,0,1,.26.37,2.22,2.22,0,0,1,.15.55,8.46,8.46,0,0,1,.1,1C546.12,455.8,546.13,456.43,546.13,457.23Z" transform="translate(-226.95 -242.79)"/><path class="cls-1" d="M560.28,444.44a4.72,4.72,0,0,1-1,3.49c-.69.64-2,1-3.82,1s-3.15-.31-3.8-.93a4.56,4.56,0,0,1-1-3.35,4.86,4.86,0,0,1,1-3.51c.68-.65,2-1,3.84-1s3.12.31,3.78.94A4.54,4.54,0,0,1,560.28,444.44Zm-.63,39.65a.93.93,0,0,1-.2.58,1.55,1.55,0,0,1-.68.41,5.67,5.67,0,0,1-1.28.25,19.07,19.07,0,0,1-2,.08,18.87,18.87,0,0,1-2-.08,5.67,5.67,0,0,1-1.28-.25,1.49,1.49,0,0,1-.68-.41.93.93,0,0,1-.2-.58V454.54a.94.94,0,0,1,.2-.59,1.69,1.69,0,0,1,.68-.43,6,6,0,0,1,1.28-.28,16,16,0,0,1,2-.1,16.19,16.19,0,0,1,2,.1,6,6,0,0,1,1.28.28,1.77,1.77,0,0,1,.68.43.94.94,0,0,1,.2.59Z" transform="translate(-226.95 -242.79)"/><path class="cls-1" d="M596.07,484.09a1.09,1.09,0,0,1-.17.61,1.15,1.15,0,0,1-.56.42,4.19,4.19,0,0,1-1.08.23q-.68.06-1.68.06c-.7,0-1.28,0-1.72-.06a4.19,4.19,0,0,1-1.08-.23,1.28,1.28,0,0,1-.6-.42,1,1,0,0,1-.18-.61V480.8a19.14,19.14,0,0,1-4.8,3.82,12.6,12.6,0,0,1-11.29.05,11.08,11.08,0,0,1-3.82-3.54,15.34,15.34,0,0,1-2.14-5.19,28.88,28.88,0,0,1-.66-6.26,27.63,27.63,0,0,1,.84-7.11,16.19,16.19,0,0,1,2.48-5.38,11,11,0,0,1,4-3.42,12.52,12.52,0,0,1,5.58-1.19,9.87,9.87,0,0,1,4.51,1,16.11,16.11,0,0,1,4,3v-16a1,1,0,0,1,.18-.59,1.31,1.31,0,0,1,.67-.45,5.38,5.38,0,0,1,1.27-.28,20.65,20.65,0,0,1,4.06,0,5.17,5.17,0,0,1,1.26.28,1.42,1.42,0,0,1,.66.45,1,1,0,0,1,.2.59Zm-8.3-19.79a18.41,18.41,0,0,0-3.44-3.46,5.78,5.78,0,0,0-3.43-1.19,4.84,4.84,0,0,0-2.81.81,5.82,5.82,0,0,0-1.89,2.18,11.25,11.25,0,0,0-1.06,3,16.23,16.23,0,0,0-.35,3.43,21.48,21.48,0,0,0,.3,3.62,11.22,11.22,0,0,0,1,3.14,5.9,5.9,0,0,0,1.81,2.21,4.7,4.7,0,0,0,2.85.83,5.94,5.94,0,0,0,1.68-.25,6.55,6.55,0,0,0,1.66-.82,11,11,0,0,0,1.74-1.47c.6-.61,1.25-1.36,2-2.24Z" transform="translate(-226.95 -242.79)"/><path class="cls-1" d="M631.17,456.53a5.82,5.82,0,0,1-.37,2.36c-.24.5-.54.76-.9.76h-3.48a4.76,4.76,0,0,1,1,1.81,7,7,0,0,1,.32,2.11,11.68,11.68,0,0,1-.86,4.6,9.19,9.19,0,0,1-2.48,3.38,10.81,10.81,0,0,1-3.88,2.09,16.78,16.78,0,0,1-5.07.72,10.51,10.51,0,0,1-2.72-.35,6.79,6.79,0,0,1-2-.81,4.45,4.45,0,0,0-.71,1,2.66,2.66,0,0,0-.32,1.32,1.86,1.86,0,0,0,.85,1.58,4.25,4.25,0,0,0,2.37.68l7.21.27a17.1,17.1,0,0,1,4.49.71,9.72,9.72,0,0,1,3.33,1.73,7.42,7.42,0,0,1,2,2.67,8.37,8.37,0,0,1,.72,3.55,9.13,9.13,0,0,1-1,4.14,9.47,9.47,0,0,1-2.88,3.37,15,15,0,0,1-4.84,2.25,24.55,24.55,0,0,1-6.79.83,29.91,29.91,0,0,1-6.45-.59,14.39,14.39,0,0,1-4.39-1.66,6.78,6.78,0,0,1-2.49-2.54,6.86,6.86,0,0,1-.78-3.24,7.54,7.54,0,0,1,.29-2.09,7.33,7.33,0,0,1,.83-1.91,9.41,9.41,0,0,1,1.34-1.74,13.79,13.79,0,0,1,1.83-1.6,5.5,5.5,0,0,1-3-4.95,7.23,7.23,0,0,1,.9-3.57,11.23,11.23,0,0,1,2.32-2.9,8.53,8.53,0,0,1-1.86-2.79,10.36,10.36,0,0,1-.7-4.05,11.19,11.19,0,0,1,.92-4.63,9.75,9.75,0,0,1,2.54-3.46,11,11,0,0,1,3.88-2.15,15.77,15.77,0,0,1,5-.75,20.79,20.79,0,0,1,2.67.17,17.33,17.33,0,0,1,2.38.46h9.39c.38,0,.68.24.92.73A6.26,6.26,0,0,1,631.17,456.53Zm-8.77,30.64a2.6,2.6,0,0,0-1.19-2.29,6.24,6.24,0,0,0-3.29-.86l-5.95-.17a8.56,8.56,0,0,0-1.37,1.22,6.39,6.39,0,0,0-.83,1.11,3.39,3.39,0,0,0-.42,1,5.71,5.71,0,0,0-.1,1,2.73,2.73,0,0,0,1.68,2.52,10.46,10.46,0,0,0,4.73.86,11.28,11.28,0,0,0,3.19-.38,6.08,6.08,0,0,0,2.09-1,3.62,3.62,0,0,0,1.13-1.41A4.19,4.19,0,0,0,622.4,487.17Zm-2-23.64a4.61,4.61,0,0,0-5.08-5,5.37,5.37,0,0,0-2.16.41,4.43,4.43,0,0,0-1.54,1.13,4.71,4.71,0,0,0-.91,1.66,6.5,6.5,0,0,0-.3,2,4.79,4.79,0,0,0,1.33,3.57,5,5,0,0,0,3.68,1.31,5.63,5.63,0,0,0,2.19-.4,4.28,4.28,0,0,0,1.55-1.1,4.69,4.69,0,0,0,.93-1.61A5.79,5.79,0,0,0,620.44,463.53Z" transform="translate(-226.95 -242.79)"/><path class="cls-1" d="M663.34,468.41a3.23,3.23,0,0,1-.68,2.26,2.43,2.43,0,0,1-1.88.73h-18a12.3,12.3,0,0,0,.45,3.44,6.6,6.6,0,0,0,1.43,2.62,6.23,6.23,0,0,0,2.52,1.65,11,11,0,0,0,3.71.56,20,20,0,0,0,3.85-.32,24.85,24.85,0,0,0,2.87-.69c.81-.26,1.48-.49,2-.7a3.69,3.69,0,0,1,1.29-.31,1,1,0,0,1,.5.11.91.91,0,0,1,.33.42,2.91,2.91,0,0,1,.19.84c0,.37.05.83.05,1.38s0,.9,0,1.25a6.51,6.51,0,0,1-.1.88,2,2,0,0,1-.2.61,2,2,0,0,1-.35.48,3.68,3.68,0,0,1-1.17.63,18.09,18.09,0,0,1-2.46.78,33,33,0,0,1-3.42.67,29.75,29.75,0,0,1-4.12.28,21.62,21.62,0,0,1-6.92-1,12.22,12.22,0,0,1-5-3,12.62,12.62,0,0,1-3-5.11,24.11,24.11,0,0,1-1-7.24,23.18,23.18,0,0,1,1-7.12,14.87,14.87,0,0,1,3-5.38,12.87,12.87,0,0,1,4.77-3.37,16.26,16.26,0,0,1,6.32-1.16,16.58,16.58,0,0,1,6.36,1.09,11.52,11.52,0,0,1,4.33,3,12.27,12.27,0,0,1,2.49,4.6,20.09,20.09,0,0,1,.8,5.78Zm-8.1-2.39a8.64,8.64,0,0,0-1.41-5.52,5.47,5.47,0,0,0-4.67-2,6.15,6.15,0,0,0-2.77.59,5.71,5.71,0,0,0-2,1.61,7.29,7.29,0,0,0-1.19,2.4,11.89,11.89,0,0,0-.49,2.93Z" transform="translate(-226.95 -242.79)"/><circle class="cls-2" cx="217.54" cy="14.12" r="14.12"/><path class="cls-2" d="M446.84,384.81c-16.87.79-47.73-72.45-24.52-99.5,11-12.82,33.63-14.6,45.07-3.78,19.15,18.11-2.86,61.33-11.63,79.83C450.55,372.34,451.93,384.57,446.84,384.81Z" transform="translate(-226.95 -242.79)"/><circle class="cls-3" cx="254.25" cy="70.01" r="7.18"/><path class="cls-3" d="M481.47,379.13c-5.41.42-21.82-36.81-12.46-50.57,4.83-7.1,17.09-7.42,22.9-1.92,9.74,9.21.35,30.78-3.07,40.61C487.38,371.45,484.05,378.93,481.47,379.13Z" transform="translate(-226.95 -242.79)"/><circle class="cls-2" cx="287.8" cy="26.35" r="12.22"/><path class="cls-2" d="M515.23,379.12c-3.36-.57-2.74-10.09-10-24.16-3.13-6-5.13-7.91-7.58-11.83-7.53-12-15.51-37.21-3.62-50.14,9.13-9.92,29.06-11.65,39-3.28,15.23,12.81,3.19,46-5.23,69.17C526.87,361.4,520,379.93,515.23,379.12Z" transform="translate(-226.95 -242.79)"/><path class="cls-4" d="M559.41,384.81c-3.11-.77-2-9.23-5.93-21.8-3.67-11.87-8.12-15.61-13.13-25-2.67-5-18.82-35.26-7.36-51,9.31-12.78,35.85-14.68,48.56-3.71,20.63,17.8.73,59.52-6.52,78.52C570.65,373.31,563.39,385.78,559.41,384.81Z" transform="translate(-226.95 -242.79)"/><path class="cls-5" d="M556.24,299.68" transform="translate(-226.95 -242.79)"/><path class="cls-4" d="M608,329.2l.79,0,.52,0a3.21,3.21,0,0,0,.56-.06c.08,0,0-.07,0-.11v-.23l0-.47c0-.31-.08-.61-.12-.92a10,10,0,0,0-.53-1.77,9.14,9.14,0,0,0-2.07-3,8.7,8.7,0,0,0-6.6-2.45,8.23,8.23,0,0,0-6,3.06,7.3,7.3,0,0,0-1.47,6h-4.75a12.55,12.55,0,0,1,4.18-8.06,11.39,11.39,0,0,1,8-2.8,11,11,0,0,1,7.4,3.42,10.71,10.71,0,0,1,2.17,3.45,11.2,11.2,0,0,1,.55,2,8.72,8.72,0,0,1,.13,1l0,.51V329s0,.08,0,.12a3.37,3.37,0,0,0,.56.06l.52,0,.8,0Z" transform="translate(-226.95 -242.79)"/><polygon class="cls-4" points="366.07 85.89 365.2 146.77 363.72 146.79 361.32 85.95 366.07 85.89"/><circle class="cls-4" cx="331.86" cy="17.52" r="14.12"/><path class="cls-4" d="M227,506.59l3.27-3.65c1.11-1.19,2.23-2.38,3.37-3.55q3.39-3.54,6.88-7c4.7-4.55,9.55-8.95,14.5-13.27S265,470.68,270.2,466.6s10.54-7.89,15.95-11.66a394.31,394.31,0,0,1,69.58-38.28c3.07-1.27,6.15-2.56,9.24-3.8l9.34-3.59c6.28-2.24,12.59-4.43,19-6.37a380,380,0,0,1,38.88-10c1.64-.34,3.27-.73,4.92-1l5-.86c3.3-.55,6.6-1.19,9.92-1.62l10-1.4c3.33-.4,6.67-.74,10-1.11,1.67-.19,3.34-.35,5-.5l5-.34c3.35-.21,6.69-.49,10-.64,6.7-.22,13.4-.58,20.11-.49,13.42,0,26.84.76,40.2,2l10,1.16c1.66.18,3.32.41,5,.67l5,.74c6.64.9,13.23,2.2,19.81,3.45,13.1,2.79,26.11,6,38.86,10,6.36,2.08,12.72,4.08,19,6.45l4.68,1.74,4.65,1.85c3.09,1.24,6.2,2.43,9.25,3.78A395.35,395.35,0,0,1,738.08,455a353.69,353.69,0,0,1,31.22,24.14c5,4.31,9.81,8.7,14.51,13.24q3.51,3.45,6.9,7c2.28,2.33,4.48,4.75,6.65,7.19l-1.29,1.53q-14.82-12.35-30.74-23.27t-32.65-20.47A455.39,455.39,0,0,0,663,431.79q-18.08-6.63-36.67-11.75t-37.55-8.45c-6.34-1-12.65-2.17-19-2.91l-4.77-.63c-1.59-.22-3.18-.42-4.78-.55l-9.58-.95c-12.78-1-25.61-1.73-38.44-1.6-6.41-.11-12.82.18-19.24.34-3.2.12-6.4.37-9.6.55l-4.81.29c-1.6.12-3.19.29-4.79.43-12.79,1-25.51,2.84-38.15,5S410.37,416.67,398,420s-24.65,7.21-36.69,11.68a457.62,457.62,0,0,0-69.7,32.63q-16.75,9.54-32.64,20.5t-30.71,23.3Z" transform="translate(-226.95 -242.79)"/><path class="cls-4" d="M250.62,488.82a66.47,66.47,0,0,1,24.18-3.65,51.09,51.09,0,0,1,12.77,2.21,28.45,28.45,0,0,1,3.17,1.12c.52.21,1.05.4,1.57.64l1.53.74,1.54.75c.5.28,1,.58,1.49.87a26.25,26.25,0,0,1,2.91,1.88,44.72,44.72,0,0,1,9.91,9.59,101.65,101.65,0,0,1,6.86,10.51c.46.75.91,1.43,1.23,1.88l.11.17.09.1c.07.09.09.09.11.12s0,0,0,0,0,0-.07-.07a2.78,2.78,0,0,0-.5-.44,1.37,1.37,0,0,0-.2-.13,2.6,2.6,0,0,0-.3-.2c-.23-.13-.38-.19-.71-.34a6.6,6.6,0,0,0-.95-.3,5.29,5.29,0,0,0-1.12-.15,6.25,6.25,0,0,0-4,1,3.87,3.87,0,0,0-.59.42c-.18.15-.36.35-.44.42a6.87,6.87,0,0,0-.45.52c-.08.09-.14.24-.14.19s0,.06,0,0,.26-.82.42-1.49.31-1.49.46-2.33c.3-1.68.55-3.54.81-5.44.59-3.79,1.15-7.77,1.9-11.78s1.67-8.07,2.9-12.09c.6-2,1.26-4,2-6s1.63-3.95,2.45-5.9a83.85,83.85,0,0,1,6.17-11.1,87.87,87.87,0,0,1,36.94-31.56l.1,0a.48.48,0,0,1,.65.24.5.5,0,0,1-.14.6,126.52,126.52,0,0,0-17.07,15.8,105.49,105.49,0,0,0-7.3,9c-1.17,1.54-2.18,3.2-3.26,4.8s-2.05,3.28-2.93,5a93.6,93.6,0,0,0-4.94,10.48c-.64,1.82-1.36,3.61-1.93,5.46s-1.11,3.7-1.59,5.58a203.54,203.54,0,0,0-4.05,22.93c-.28,1.93-.58,3.87-.94,5.81a30.22,30.22,0,0,1-1.57,5.85,6.29,6.29,0,0,1-2,2.77,3.5,3.5,0,0,1-2,.55,3.57,3.57,0,0,1-1.84-.69,9.2,9.2,0,0,1-2.15-2.45c-.56-.85-1-1.72-1.52-2.58a103,103,0,0,0-5.84-10,39.1,39.1,0,0,0-7.69-8.44,45,45,0,0,0-20.85-9.09,85.34,85.34,0,0,0-23.14-.69.49.49,0,0,1-.21-1Z" transform="translate(-226.95 -242.79)"/><path class="cls-4" d="M776.87,488.82a66.44,66.44,0,0,0-24.18-3.65,51.09,51.09,0,0,0-12.77,2.21,29.18,29.18,0,0,0-3.17,1.12c-.52.21-1,.4-1.56.64l-1.54.74-1.54.75c-.5.28-1,.58-1.49.87a26.25,26.25,0,0,0-2.91,1.88A44.72,44.72,0,0,0,717.8,503,99.83,99.83,0,0,0,711,513.48c-.47.75-.91,1.43-1.23,1.88l-.12.17-.09.1c-.07.09-.09.09-.11.12s0,0,0,0,0,0,.07-.07a2.78,2.78,0,0,1,.5-.44,1.37,1.37,0,0,1,.2-.13l.3-.2a7.25,7.25,0,0,1,.72-.34,5.89,5.89,0,0,1,.95-.3,5.2,5.2,0,0,1,1.11-.15,6.23,6.23,0,0,1,4,1,3.87,3.87,0,0,1,.59.42c.19.15.36.35.44.42a6.87,6.87,0,0,1,.45.52c.08.09.14.24.14.19s0,.06,0,0a15,15,0,0,1-.41-1.49c-.17-.67-.32-1.49-.47-2.33-.29-1.68-.55-3.54-.81-5.44-.59-3.79-1.14-7.77-1.9-11.78s-1.67-8.07-2.89-12.09c-.61-2-1.27-4-2-6s-1.63-3.95-2.45-5.9a83.85,83.85,0,0,0-6.17-11.1,87.87,87.87,0,0,0-36.94-31.56l-.1,0a.48.48,0,0,0-.65.24.49.49,0,0,0,.15.6,126.44,126.44,0,0,1,17.06,15.8,101.78,101.78,0,0,1,7.3,9c1.17,1.54,2.18,3.2,3.26,4.8s2.05,3.28,2.93,5a91.87,91.87,0,0,1,4.94,10.48c.64,1.82,1.36,3.61,1.93,5.46s1.12,3.7,1.59,5.58a201.32,201.32,0,0,1,4,22.93c.29,1.93.58,3.87.94,5.81a31,31,0,0,0,1.57,5.85,6.29,6.29,0,0,0,2,2.77,3.22,3.22,0,0,0,3.8-.14,9.2,9.2,0,0,0,2.15-2.45c.56-.85,1-1.72,1.52-2.58a103,103,0,0,1,5.84-10,39.1,39.1,0,0,1,7.69-8.44,45,45,0,0,1,20.85-9.09,85.41,85.41,0,0,1,23.15-.69.49.49,0,0,0,.2-1Z" transform="translate(-226.95 -242.79)"/><path class="cls-4" d="M294.43,461.1A54.63,54.63,0,0,1,302,472a89,89,0,0,1,5.33,11.69A91,91,0,0,1,311,496a54.57,54.57,0,0,1,1.36,13.17l-.47.18-2.35-6-2.28-6-4.56-12-4.4-12-2.2-6L294,461.28Z" transform="translate(-226.95 -242.79)"/><path class="cls-4" d="M733.44,461.64a54,54,0,0,0-7.61,10.84,86.59,86.59,0,0,0-5.33,11.7,89.52,89.52,0,0,0-3.62,12.33,55.21,55.21,0,0,0-1.36,13.18l.47.18,2.35-6,2.28-6,4.56-12,4.4-12.05,2.2-6,2.12-6.05Z" transform="translate(-226.95 -242.79)"/></svg>