<svg width="24" height="24" viewBox="0 0 24 24" fill="none" xmlns="http://www.w3.org/2000/svg">
<path d="M19 21V19H15V17H19V15L22 18L19 21ZM13 18C13 18.71 13.15 19.39 13.42 20H2V17C2 14.79 5.58 13 10 13C11 13 11.96 13.09 12.85 13.26C13.68 13.42 14.44 13.64 15.11 13.92C13.83 14.83 13 16.32 13 18ZM4 17V18H11C11 16.96 11.23 15.97 11.64 15.08L10 15C6.69 15 4 15.9 4 17ZM10 4C11.0609 4 12.0783 4.42143 12.8284 5.17157C13.5786 5.92172 14 6.93913 14 8C14 9.06087 13.5786 10.0783 12.8284 10.8284C12.0783 11.5786 11.0609 12 10 12C8.93913 12 7.92172 11.5786 7.17157 10.8284C6.42143 10.0783 6 9.06087 6 8C6 6.93913 6.42143 5.92172 7.17157 5.17157C7.92172 4.42143 8.93913 4 10 4ZM10 6C9.46957 6 8.96086 6.21071 8.58579 6.58579C8.21071 6.96086 8 7.46957 8 8C8 8.53043 8.21071 9.03914 8.58579 9.41421C8.96086 9.78929 9.46957 10 10 10C10.5304 10 11.0391 9.78929 11.4142 9.41421C11.7893 9.03914 12 8.53043 12 8C12 7.46957 11.7893 6.96086 11.4142 6.58579C11.0391 6.21071 10.5304 6 10 6Z" fill="#1D77FF"/>
</svg>
